# Blender 3.5.0
# www.blender.org
mtllib notes/notes.mtl
o ICO球
v 0.000000 -1.000000 0.000000
v -0.723607 -0.447220 -0.525725
v 0.276388 -0.447220 -0.850649
v 0.894426 -0.447216 0.000000
v 0.276388 -0.447220 0.850649
v -0.723607 -0.447220 0.525725
v -0.276388 0.447220 -0.850649
v 0.723607 0.447220 -0.525725
v 0.723607 0.447220 0.525725
v -0.276388 0.447220 0.850649
v -0.894426 0.447216 0.000000
v 0.000000 1.000000 0.000000
v 0.162456 -0.850654 -0.499995
v -0.425323 -0.850654 -0.309011
v -0.262869 -0.525738 -0.809012
v -0.850648 -0.525736 0.000000
v -0.425323 -0.850654 0.309011
v 0.525730 -0.850652 0.000000
v 0.688189 -0.525736 -0.499997
v 0.162456 -0.850654 0.499995
v 0.688189 -0.525736 0.499997
v -0.262869 -0.525738 0.809012
v -0.951058 0.000000 -0.309013
v -0.951058 0.000000 0.309013
v 0.000000 0.000000 -1.000000
v -0.587786 0.000000 -0.809017
v 0.951058 0.000000 -0.309013
v 0.587786 0.000000 -0.809017
v 0.587786 0.000000 0.809017
v 0.951058 0.000000 0.309013
v -0.587786 0.000000 0.809017
v 0.000000 0.000000 1.000000
v -0.688189 0.525736 -0.499997
v 0.262869 0.525738 -0.809012
v 0.850648 0.525736 0.000000
v 0.262869 0.525738 0.809012
v -0.688189 0.525736 0.499997
v -0.162456 0.850654 -0.499995
v -0.525730 0.850652 0.000000
v 0.425323 0.850654 -0.309011
v 0.425323 0.850654 0.309011
v -0.162456 0.850654 0.499995
vn -0.1024 -0.9435 -0.3151
vn -0.7002 -0.6617 -0.2680
vn 0.2680 -0.9435 -0.1947
vn 0.2680 -0.9435 0.1947
vn -0.1024 -0.9435 0.3151
vn -0.9050 -0.3304 -0.2680
vn -0.0247 -0.3304 -0.9435
vn 0.8897 -0.3304 -0.3151
vn 0.5746 -0.3304 0.7488
vn -0.5346 -0.3304 0.7779
vn -0.8026 -0.1256 -0.5831
vn 0.3066 -0.1256 -0.9435
vn 0.9921 -0.1256 -0.0000
vn 0.3066 -0.1256 0.9435
vn -0.8026 -0.1256 0.5831
vn -0.4089 0.6617 -0.6284
vn 0.4713 0.6617 -0.5831
vn 0.7002 0.6617 0.2680
vn -0.0385 0.6617 0.7488
vn -0.7240 0.6617 0.1947
vn -0.2680 0.9435 0.1947
vn -0.4911 0.7947 0.3568
vn -0.4089 0.6617 0.6284
vn 0.1024 0.9435 0.3151
vn 0.1876 0.7947 0.5773
vn 0.4713 0.6617 0.5831
vn 0.3313 0.9435 -0.0000
vn 0.6071 0.7947 -0.0000
vn 0.7002 0.6617 -0.2680
vn 0.1024 0.9435 -0.3151
vn 0.1876 0.7947 -0.5773
vn -0.0385 0.6617 -0.7488
vn -0.2680 0.9435 -0.1947
vn -0.4911 0.7947 -0.3568
vn -0.7240 0.6617 -0.1947
vn -0.8897 0.3304 0.3151
vn -0.7947 0.1876 0.5773
vn -0.5746 0.3304 0.7488
vn 0.0247 0.3304 0.9435
vn 0.3035 0.1876 0.9342
vn 0.5346 0.3304 0.7779
vn 0.9050 0.3304 0.2680
vn 0.9822 0.1876 -0.0000
vn 0.9050 0.3304 -0.2680
vn 0.5346 0.3304 -0.7779
vn 0.3035 0.1876 -0.9342
vn 0.0247 0.3304 -0.9435
vn -0.5746 0.3304 -0.7488
vn -0.7947 0.1876 -0.5773
vn -0.8897 0.3304 -0.3151
vn -0.3066 0.1256 0.9435
vn -0.3035 -0.1876 0.9342
vn -0.0247 -0.3304 0.9435
vn 0.8026 0.1256 0.5831
vn 0.7947 -0.1876 0.5773
vn 0.8897 -0.3304 0.3151
vn 0.8026 0.1256 -0.5831
vn 0.7947 -0.1876 -0.5773
vn 0.5746 -0.3304 -0.7488
vn -0.3066 0.1256 -0.9435
vn -0.3035 -0.1876 -0.9342
vn -0.5346 -0.3304 -0.7779
vn -0.9921 0.1256 -0.0000
vn -0.9822 -0.1876 -0.0000
vn -0.9050 -0.3304 0.2680
vn -0.4713 -0.6617 0.5831
vn -0.1876 -0.7947 0.5773
vn 0.0385 -0.6617 0.7488
vn 0.4089 -0.6617 0.6284
vn 0.4911 -0.7947 0.3568
vn 0.7240 -0.6617 0.1947
vn 0.7240 -0.6617 -0.1947
vn 0.4911 -0.7947 -0.3568
vn 0.4089 -0.6617 -0.6284
vn -0.7002 -0.6617 0.2680
vn -0.6071 -0.7947 -0.0000
vn -0.3313 -0.9435 -0.0000
vn 0.0385 -0.6617 -0.7488
vn -0.1876 -0.7947 -0.5773
vn -0.4713 -0.6617 -0.5831
vt 0.181819 0.000000
vt 0.909091 0.000000
vt 0.727273 0.000000
vt 0.545455 0.000000
vt 0.363637 0.000000
vt 0.272728 0.157461
vt 1.000000 0.157461
vt 0.090910 0.157461
vt 0.818182 0.157461
vt 0.636364 0.157461
vt 0.454546 0.157461
vt 0.181819 0.314921
vt 0.000000 0.314921
vt 0.909091 0.314921
vt 0.727273 0.314921
vt 0.545455 0.314921
vt 0.363637 0.314921
vt 0.454546 0.472382
vt 0.636364 0.472382
vt 0.818182 0.472382
vt 0.090910 0.472382
vt 0.272728 0.472382
vt 0.954545 0.078731
vt 0.136365 0.078731
vt 0.318182 0.078731
vt 0.227273 0.078731
vt 0.181819 0.157461
vt 0.363637 0.157461
vt 0.500000 0.078731
vt 0.409092 0.078731
vt 0.772727 0.078731
vt 0.863636 0.078731
vt 0.909091 0.157461
vt 0.590909 0.078731
vt 0.681818 0.078731
vt 0.727273 0.157461
vt 0.545455 0.157461
vt 0.318182 0.236191
vt 0.409092 0.236191
vt 0.136365 0.236191
vt 0.227273 0.236191
vt 0.863636 0.236191
vt 0.045455 0.236191
vt 0.954545 0.236191
vt 0.681818 0.236191
vt 0.772727 0.236191
vt 0.500000 0.236191
vt 0.590909 0.236191
vt 0.272728 0.314921
vt 0.090910 0.314921
vt 0.818182 0.314921
vt 0.636364 0.314921
vt 0.454546 0.314921
vt 0.136365 0.393651
vt 0.227273 0.393651
vt 0.409092 0.393651
vt 0.318182 0.393651
vt 0.863636 0.393651
vt 0.045455 0.393651
vt 0.681818 0.393651
vt 0.772727 0.393651
vt 0.500000 0.393651
vt 0.590909 0.393651
s 0
usemtl マテリアル
f 1/1/1 14/26/1 13/24/1
f 2/6/2 14/25/2 16/28/2
f 1/2/3 13/23/3 18/32/3
f 1/3/4 18/31/4 20/35/4
f 1/4/5 20/34/5 17/29/5
f 2/6/6 16/28/6 23/38/6
f 3/8/7 15/27/7 25/40/7
f 4/9/8 19/33/8 27/42/8
f 5/10/9 21/36/9 29/45/9
f 6/11/10 22/37/10 31/47/10
f 2/6/11 23/38/11 26/41/11
f 3/8/12 25/40/12 28/43/12
f 4/9/13 27/42/13 30/46/13
f 5/10/14 29/45/14 32/48/14
f 6/11/15 31/47/15 24/39/15
f 7/12/16 33/49/16 38/55/16
f 8/13/17 34/50/17 40/59/17
f 9/15/18 35/51/18 41/61/18
f 10/16/19 36/52/19 42/63/19
f 11/17/20 37/53/20 39/56/20
f 39/56/21 42/62/21 12/18/21
f 39/56/22 37/53/22 42/62/22
f 37/53/23 10/16/23 42/62/23
f 42/63/24 41/60/24 12/19/24
f 42/63/25 36/52/25 41/60/25
f 36/52/26 9/15/26 41/60/26
f 41/61/27 40/58/27 12/20/27
f 41/61/28 35/51/28 40/58/28
f 35/51/29 8/14/29 40/58/29
f 40/59/30 38/54/30 12/21/30
f 40/59/31 34/50/31 38/54/31
f 34/50/32 7/12/32 38/54/32
f 38/55/33 39/57/33 12/22/33
f 38/55/34 33/49/34 39/57/34
f 33/49/35 11/17/35 39/57/35
f 24/39/36 37/53/36 11/17/36
f 24/39/37 31/47/37 37/53/37
f 31/47/38 10/16/38 37/53/38
f 32/48/39 36/52/39 10/16/39
f 32/48/40 29/45/40 36/52/40
f 29/45/41 9/15/41 36/52/41
f 30/46/42 35/51/42 9/15/42
f 30/46/43 27/42/43 35/51/43
f 27/42/44 8/14/44 35/51/44
f 28/43/45 34/50/45 8/13/45
f 28/43/46 25/40/46 34/50/46
f 25/40/47 7/12/47 34/50/47
f 26/41/48 33/49/48 7/12/48
f 26/41/49 23/38/49 33/49/49
f 23/38/50 11/17/50 33/49/50
f 31/47/51 32/48/51 10/16/51
f 31/47/52 22/37/52 32/48/52
f 22/37/53 5/10/53 32/48/53
f 29/45/54 30/46/54 9/15/54
f 29/45/55 21/36/55 30/46/55
f 21/36/56 4/9/56 30/46/56
f 27/42/57 28/44/57 8/14/57
f 27/42/58 19/33/58 28/44/58
f 19/33/59 3/7/59 28/44/59
f 25/40/60 26/41/60 7/12/60
f 25/40/61 15/27/61 26/41/61
f 15/27/62 2/6/62 26/41/62
f 23/38/63 24/39/63 11/17/63
f 23/38/64 16/28/64 24/39/64
f 16/28/65 6/11/65 24/39/65
f 17/29/66 22/37/66 6/11/66
f 17/29/67 20/34/67 22/37/67
f 20/34/68 5/10/68 22/37/68
f 20/35/69 21/36/69 5/10/69
f 20/35/70 18/31/70 21/36/70
f 18/31/71 4/9/71 21/36/71
f 18/32/72 19/33/72 4/9/72
f 18/32/73 13/23/73 19/33/73
f 13/23/74 3/7/74 19/33/74
f 16/28/75 17/30/75 6/11/75
f 16/28/76 14/25/76 17/30/76
f 14/25/77 1/5/77 17/30/77
f 13/24/78 15/27/78 3/8/78
f 13/24/79 14/26/79 15/27/79
f 14/26/80 2/6/80 15/27/80
o 円柱
v 1.739283 0.000000 0.144461
v -1.739283 -0.000000 0.144461
v 1.739283 -0.028183 0.141685
v -1.739283 -0.028183 0.141685
v 1.739283 -0.055283 0.133464
v -1.739283 -0.055283 0.133464
v 1.739283 -0.080258 0.120115
v -1.739283 -0.080258 0.120115
v 1.739283 -0.102149 0.102149
v -1.739283 -0.102149 0.102149
v 1.739283 -0.120115 0.080258
v -1.739283 -0.120115 0.080258
v 1.739283 -0.133464 0.055283
v -1.739283 -0.133464 0.055283
v 1.739283 -0.141685 0.028183
v -1.739283 -0.141685 0.028183
v 1.739283 -0.144461 0.000000
v -1.739283 -0.144461 0.000000
v 1.739283 -0.141685 -0.028183
v -1.739283 -0.141685 -0.028183
v 1.739283 -0.133464 -0.055283
v -1.739283 -0.133464 -0.055283
v 1.739283 -0.120115 -0.080258
v -1.739283 -0.120115 -0.080258
v 1.739283 -0.102149 -0.102149
v -1.739283 -0.102149 -0.102149
v 1.739283 -0.080258 -0.120115
v -1.739283 -0.080258 -0.120115
v 1.739283 -0.055283 -0.133464
v -1.739283 -0.055283 -0.133464
v 1.739283 -0.028183 -0.141685
v -1.739283 -0.028183 -0.141685
v 1.739283 0.000000 -0.144461
v -1.739283 -0.000000 -0.144461
v 1.739283 0.028183 -0.141685
v -1.739283 0.028183 -0.141685
v 1.739283 0.055283 -0.133464
v -1.739283 0.055283 -0.133464
v 1.739283 0.080258 -0.120115
v -1.739283 0.080258 -0.120115
v 1.739283 0.102149 -0.102149
v -1.739283 0.102149 -0.102149
v 1.739283 0.120115 -0.080258
v -1.739283 0.120115 -0.080258
v 1.739283 0.133464 -0.055283
v -1.739283 0.133464 -0.055283
v 1.739283 0.141685 -0.028183
v -1.739283 0.141685 -0.028183
v 1.739283 0.144461 0.000000
v -1.739283 0.144461 0.000000
v 1.739283 0.141685 0.028183
v -1.739283 0.141685 0.028183
v 1.739283 0.133464 0.055283
v -1.739283 0.133464 0.055283
v 1.739283 0.120115 0.080258
v -1.739283 0.120115 0.080258
v 1.739283 0.102149 0.102149
v -1.739283 0.102149 0.102149
v 1.739283 0.080258 0.120115
v -1.739283 0.080258 0.120115
v 1.739283 0.055283 0.133464
v -1.739283 0.055283 0.133464
v 1.739283 0.028183 0.141685
v -1.739283 0.028183 0.141685
vn -0.0000 -0.0980 0.9952
vn -0.0000 -0.2903 0.9569
vn -0.0000 -0.4714 0.8819
vn -0.0000 -0.6344 0.7730
vn -0.0000 -0.7730 0.6344
vn -0.0000 -0.8819 0.4714
vn -0.0000 -0.9569 0.2903
vn -0.0000 -0.9952 0.0980
vn -0.0000 -0.9952 -0.0980
vn -0.0000 -0.9569 -0.2903
vn -0.0000 -0.8819 -0.4714
vn -0.0000 -0.7730 -0.6344
vn -0.0000 -0.6344 -0.7730
vn -0.0000 -0.4714 -0.8819
vn -0.0000 -0.2903 -0.9569
vn -0.0000 -0.0980 -0.9952
vn -0.0000 0.0980 -0.9952
vn -0.0000 0.2903 -0.9569
vn -0.0000 0.4714 -0.8819
vn -0.0000 0.6344 -0.7730
vn -0.0000 0.7730 -0.6344
vn -0.0000 0.8819 -0.4714
vn -0.0000 0.9569 -0.2903
vn -0.0000 0.9952 -0.0980
vn -0.0000 0.9952 0.0980
vn -0.0000 0.9569 0.2903
vn -0.0000 0.8819 0.4714
vn -0.0000 0.7730 0.6344
vn -0.0000 0.6344 0.7730
vn -0.0000 0.4714 0.8819
vn -1.0000 -0.0000 -0.0000
vn -0.0000 0.2903 0.9569
vn -0.0000 0.0980 0.9952
vn 1.0000 -0.0000 -0.0000
vt 1.000000 0.500000
vt 0.000000 0.500000
vt 0.750000 0.490000
vt 1.000000 1.000000
vt 0.250000 0.490000
vt 0.000000 1.000000
vt 0.968750 0.500000
vt 0.796822 0.485388
vt 0.968750 1.000000
vt 0.296822 0.485388
vt 0.937500 0.500000
vt 0.841844 0.471731
vt 0.937500 1.000000
vt 0.341844 0.471731
vt 0.906250 0.500000
vt 0.883337 0.449553
vt 0.906250 1.000000
vt 0.383337 0.449553
vt 0.875000 0.500000
vt 0.919706 0.419706
vt 0.875000 1.000000
vt 0.419706 0.419706
vt 0.843750 0.500000
vt 0.949553 0.383337
vt 0.843750 1.000000
vt 0.449553 0.383337
vt 0.812500 0.500000
vt 0.971731 0.341844
vt 0.812500 1.000000
vt 0.471731 0.341844
vt 0.781250 0.500000
vt 0.985388 0.296822
vt 0.781250 1.000000
vt 0.485388 0.296822
vt 0.750000 0.500000
vt 0.990000 0.250000
vt 0.750000 1.000000
vt 0.490000 0.250000
vt 0.718750 0.500000
vt 0.985388 0.203178
vt 0.718750 1.000000
vt 0.485388 0.203178
vt 0.687500 0.500000
vt 0.971731 0.158156
vt 0.687500 1.000000
vt 0.471731 0.158156
vt 0.656250 0.500000
vt 0.949553 0.116663
vt 0.656250 1.000000
vt 0.449553 0.116663
vt 0.625000 0.500000
vt 0.919706 0.080294
vt 0.625000 1.000000
vt 0.419706 0.080294
vt 0.593750 0.500000
vt 0.883337 0.050447
vt 0.593750 1.000000
vt 0.383337 0.050447
vt 0.562500 0.500000
vt 0.841844 0.028269
vt 0.562500 1.000000
vt 0.341844 0.028269
vt 0.531250 0.500000
vt 0.796822 0.014612
vt 0.531250 1.000000
vt 0.296822 0.014612
vt 0.500000 0.500000
vt 0.750000 0.010000
vt 0.500000 1.000000
vt 0.250000 0.010000
vt 0.468750 0.500000
vt 0.703178 0.014612
vt 0.468750 1.000000
vt 0.203178 0.014612
vt 0.437500 0.500000
vt 0.658156 0.028269
vt 0.437500 1.000000
vt 0.158156 0.028269
vt 0.406250 0.500000
vt 0.616663 0.050447
vt 0.406250 1.000000
vt 0.116663 0.050447
vt 0.375000 0.500000
vt 0.580294 0.080294
vt 0.375000 1.000000
vt 0.080294 0.080294
vt 0.343750 0.500000
vt 0.550447 0.116663
vt 0.343750 1.000000
vt 0.050447 0.116663
vt 0.312500 0.500000
vt 0.528269 0.158156
vt 0.312500 1.000000
vt 0.028269 0.158156
vt 0.281250 0.500000
vt 0.514612 0.203178
vt 0.281250 1.000000
vt 0.014612 0.203178
vt 0.250000 0.500000
vt 0.510000 0.250000
vt 0.250000 1.000000
vt 0.010000 0.250000
vt 0.218750 0.500000
vt 0.514612 0.296822
vt 0.218750 1.000000
vt 0.014612 0.296822
vt 0.187500 0.500000
vt 0.528269 0.341844
vt 0.187500 1.000000
vt 0.028269 0.341844
vt 0.156250 0.500000
vt 0.550447 0.383337
vt 0.156250 1.000000
vt 0.050447 0.383337
vt 0.125000 0.500000
vt 0.580294 0.419706
vt 0.125000 1.000000
vt 0.080294 0.419706
vt 0.093750 0.500000
vt 0.616663 0.449553
vt 0.093750 1.000000
vt 0.116663 0.449553
vt 0.062500 0.500000
vt 0.658156 0.471731
vt 0.158156 0.471731
vt 0.062500 1.000000
vt 0.031250 0.500000
vt 0.703178 0.485388
vt 0.203178 0.485388
vt 0.031250 1.000000
s 0
f 44/67/81 45/70/81 43/64/81
f 46/72/82 47/74/82 45/70/82
f 48/76/83 49/78/83 47/74/83
f 50/80/84 51/82/84 49/78/84
f 52/84/85 53/86/85 51/82/85
f 54/88/86 55/90/86 53/86/86
f 56/92/87 57/94/87 55/90/87
f 58/96/88 59/98/88 57/94/88
f 60/100/89 61/102/89 59/98/89
f 62/104/90 63/106/90 61/102/90
f 64/108/91 65/110/91 63/106/91
f 66/112/92 67/114/92 65/110/92
f 68/116/93 69/118/93 67/114/93
f 70/120/94 71/122/94 69/118/94
f 72/124/95 73/126/95 71/122/95
f 74/128/96 75/130/96 73/126/96
f 76/132/97 77/134/97 75/130/97
f 78/136/98 79/138/98 77/134/98
f 80/140/99 81/142/99 79/138/99
f 82/144/100 83/146/100 81/142/100
f 84/148/101 85/150/101 83/146/101
f 86/152/102 87/154/102 85/150/102
f 88/156/103 89/158/103 87/154/103
f 90/160/104 91/162/104 89/158/104
f 92/164/105 93/166/105 91/162/105
f 94/168/106 95/170/106 93/166/106
f 96/172/107 97/174/107 95/170/107
f 98/176/108 99/178/108 97/174/108
f 100/180/109 101/182/109 99/178/109
f 102/184/110 103/186/110 101/182/110
f 80/141/111 64/109/111 48/77/111
f 104/189/112 105/190/112 103/186/112
f 106/193/113 43/65/113 105/190/113
f 73/127/114 89/159/114 105/191/114
f 44/67/81 46/72/81 45/70/81
f 46/72/82 48/76/82 47/74/82
f 48/76/83 50/80/83 49/78/83
f 50/80/84 52/84/84 51/82/84
f 52/84/85 54/88/85 53/86/85
f 54/88/86 56/92/86 55/90/86
f 56/92/87 58/96/87 57/94/87
f 58/96/88 60/100/88 59/98/88
f 60/100/89 62/104/89 61/102/89
f 62/104/90 64/108/90 63/106/90
f 64/108/91 66/112/91 65/110/91
f 66/112/92 68/116/92 67/114/92
f 68/116/93 70/120/93 69/118/93
f 70/120/94 72/124/94 71/122/94
f 72/124/95 74/128/95 73/126/95
f 74/128/96 76/132/96 75/130/96
f 76/132/97 78/136/97 77/134/97
f 78/136/98 80/140/98 79/138/98
f 80/140/99 82/144/99 81/142/99
f 82/144/100 84/148/100 83/146/100
f 84/148/101 86/152/101 85/150/101
f 86/152/102 88/156/102 87/154/102
f 88/156/103 90/160/103 89/158/103
f 90/160/104 92/164/104 91/162/104
f 92/164/105 94/168/105 93/166/105
f 94/168/106 96/172/106 95/170/106
f 96/172/107 98/176/107 97/174/107
f 98/176/108 100/180/108 99/178/108
f 100/180/109 102/184/109 101/182/109
f 102/184/110 104/189/110 103/186/110
f 48/77/111 46/73/111 44/68/111
f 44/68/111 106/192/111 104/188/111
f 104/188/111 102/185/111 100/181/111
f 100/181/111 98/177/111 96/173/111
f 96/173/111 94/169/111 92/165/111
f 92/165/111 90/161/111 88/157/111
f 88/157/111 86/153/111 84/149/111
f 84/149/111 82/145/111 80/141/111
f 80/141/111 78/137/111 76/133/111
f 76/133/111 74/129/111 72/125/111
f 72/125/111 70/121/111 68/117/111
f 68/117/111 66/113/111 64/109/111
f 64/109/111 62/105/111 60/101/111
f 60/101/111 58/97/111 56/93/111
f 56/93/111 54/89/111 52/85/111
f 52/85/111 50/81/111 48/77/111
f 48/77/111 44/68/111 104/188/111
f 104/188/111 100/181/111 96/173/111
f 96/173/111 92/165/111 88/157/111
f 88/157/111 84/149/111 80/141/111
f 80/141/111 76/133/111 72/125/111
f 72/125/111 68/117/111 64/109/111
f 64/109/111 60/101/111 56/93/111
f 56/93/111 52/85/111 48/77/111
f 48/77/111 104/188/111 96/173/111
f 96/173/111 88/157/111 80/141/111
f 80/141/111 72/125/111 64/109/111
f 64/109/111 56/93/111 48/77/111
f 48/77/111 96/173/111 80/141/111
f 104/189/112 106/193/112 105/190/112
f 106/193/113 44/69/113 43/65/113
f 105/191/114 43/66/114 45/71/114
f 45/71/114 47/75/114 49/79/114
f 49/79/114 51/83/114 53/87/114
f 53/87/114 55/91/114 57/95/114
f 57/95/114 59/99/114 61/103/114
f 61/103/114 63/107/114 65/111/114
f 65/111/114 67/115/114 69/119/114
f 69/119/114 71/123/114 73/127/114
f 73/127/114 75/131/114 77/135/114
f 77/135/114 79/139/114 81/143/114
f 81/143/114 83/147/114 85/151/114
f 85/151/114 87/155/114 89/159/114
f 89/159/114 91/163/114 93/167/114
f 93/167/114 95/171/114 97/175/114
f 97/175/114 99/179/114 101/183/114
f 101/183/114 103/187/114 105/191/114
f 105/191/114 45/71/114 49/79/114
f 49/79/114 53/87/114 57/95/114
f 57/95/114 61/103/114 65/111/114
f 65/111/114 69/119/114 73/127/114
f 73/127/114 77/135/114 81/143/114
f 81/143/114 85/151/114 89/159/114
f 89/159/114 93/167/114 97/175/114
f 97/175/114 101/183/114 105/191/114
f 105/191/114 49/79/114 57/95/114
f 57/95/114 65/111/114 73/127/114
f 73/127/114 81/143/114 89/159/114
f 89/159/114 97/175/114 105/191/114
f 105/191/114 57/95/114 73/127/114
