# Blender v3.5.0 OBJ File: 'charaModel.blend'
# www.blender.org
mtllib waist.mtl
o 腰_立方体.001
v 0.000000 -1.380000 0.001099
v 1.000000 0.005705 -1.000000
v 1.000000 0.005705 1.000000
v -1.000000 0.005705 -1.000000
v -1.000000 0.005705 1.000000
v 0.000000 0.005705 1.000000
v 0.000000 0.005705 -1.000000
v 0.500000 0.005705 -1.000000
v 0.500000 0.005705 1.000000
v -0.500000 0.005705 1.000000
v -0.500000 0.005705 -1.000000
v 1.000000 -0.380000 -1.000000
v 1.000000 -0.380000 1.000000
v -1.000000 -0.380000 1.000000
v -1.000000 -0.380000 -1.000000
v 0.000000 -0.380000 -1.000000
v 0.000000 -0.380000 1.000000
v 0.500000 -0.380000 1.000000
v 0.500000 -0.380000 -1.000000
v -0.500000 -0.380000 -1.000000
v -0.500000 -0.380000 1.000000
v 1.000000 0.005705 0.003298
v -1.000000 0.005705 0.003298
v 0.000000 0.005705 0.003298
v 0.500000 0.005705 0.003298
v -0.500000 0.005705 0.003298
v -1.000000 -0.380000 0.003298
v 1.000000 -0.380000 0.003298
vt 0.625000 0.125412
vt 0.500000 0.250000
vt 0.500000 0.125412
vt 0.625000 0.437500
vt 0.500000 0.500000
vt 0.500000 0.437500
vt 0.625000 0.624588
vt 0.500000 0.750000
vt 0.500000 0.624588
vt 0.625000 0.937500
vt 0.500000 1.000000
vt 0.500000 0.937500
vt 0.875000 0.624588
vt 0.812500 0.750000
vt 0.812500 0.624588
vt 0.750000 0.624588
vt 0.687500 0.750000
vt 0.687500 0.624588
vt 0.625000 0.812500
vt 0.500000 0.875000
vt 0.500000 0.812500
vt 0.625000 0.312500
vt 0.500000 0.375000
vt 0.500000 0.312500
vt 0.625000 0.250000
vt 0.750000 0.750000
vt 0.625000 0.875000
vt 0.625000 0.750000
vt 0.625000 0.375000
vt 0.375000 0.375000
vt 0.375000 0.750000
vt 0.375000 0.875000
vt 0.375000 0.250000
vt 0.375000 0.312500
vt 0.375000 0.812500
vt 0.375000 0.937500
vt 0.375000 0.624588
vt 0.375000 0.437500
vt 0.375000 0.125412
vt 0.375000 0.000000
vt 0.500000 0.000000
vt 0.375000 0.500000
vt 0.687500 0.500000
vt 0.625000 0.500000
vt 0.812500 0.500000
vt 0.750000 0.500000
vt 0.875000 0.500000
vt 0.625000 0.000000
vt 0.625000 1.000000
vt 0.875000 0.750000
vn 1.0000 0.0000 0.0000
vn 0.0000 0.0000 1.0000
vn -1.0000 0.0000 0.0000
vn 0.0000 0.0000 -1.0000
vn 0.0000 1.0000 0.0000
vn 0.0000 -0.7067 0.7075
vn 0.0000 -0.7075 -0.7067
vn -0.7071 -0.7071 0.0000
vn 0.7071 -0.7071 0.0000
usemtl None
s off
f 22/1/1 13/2/1 28/3/1
f 10/4/2 14/5/2 21/6/2
f 23/7/3 15/8/3 27/9/3
f 8/10/4 12/11/4 19/12/4
f 22/13/5 8/14/5 25/15/5
f 24/16/5 11/17/5 26/18/5
f 11/19/4 16/20/4 20/21/4
f 9/22/2 17/23/2 18/24/2
f 3/25/2 18/24/2 13/2/2
f 25/15/5 7/26/5 24/16/5
f 7/27/4 19/12/4 16/20/4
f 4/28/4 20/21/4 15/8/4
f 26/18/5 4/28/5 23/7/5
f 6/29/2 21/6/2 17/23/2
f 1/30/6 17/23/6 21/6/6
f 1/31/7 15/8/7 20/21/7
f 1/32/7 16/20/7 19/12/7
f 1/33/6 13/2/6 18/24/6
f 1/34/6 18/24/6 17/23/6
f 1/35/7 20/21/7 16/20/7
f 1/36/7 19/12/7 12/11/7
f 1/37/8 27/9/8 15/8/8
f 1/38/6 21/6/6 14/5/6
f 1/39/9 28/3/9 13/2/9
f 1/40/9 12/41/9 28/3/9
f 1/42/8 14/5/8 27/9/8
f 10/43/5 23/7/5 5/44/5
f 9/45/5 24/16/5 6/46/5
f 6/46/5 26/18/5 10/43/5
f 3/47/5 25/15/5 9/45/5
f 5/44/3 27/9/3 14/5/3
f 2/48/1 28/3/1 12/41/1
f 22/1/1 3/25/1 13/2/1
f 10/4/2 5/44/2 14/5/2
f 23/7/3 4/28/3 15/8/3
f 8/10/4 2/49/4 12/11/4
f 22/13/5 2/50/5 8/14/5
f 24/16/5 7/26/5 11/17/5
f 11/19/4 7/27/4 16/20/4
f 9/22/2 6/29/2 17/23/2
f 3/25/2 9/22/2 18/24/2
f 25/15/5 8/14/5 7/26/5
f 7/27/4 8/10/4 19/12/4
f 4/28/4 11/19/4 20/21/4
f 26/18/5 11/17/5 4/28/5
f 6/29/2 10/4/2 21/6/2
f 10/43/5 26/18/5 23/7/5
f 9/45/5 25/15/5 24/16/5
f 6/46/5 24/16/5 26/18/5
f 3/47/5 22/13/5 25/15/5
f 5/44/3 23/7/3 27/9/3
f 2/48/1 22/1/1 28/3/1
