# Blender v3.5.0 OBJ File: ''
# www.blender.org
mtllib eatRamen/eatRamen.mtl
o 円柱
v -0.000000 -1.000000 0.674635
v -0.000000 -0.288264 1.161559
v -0.131615 -1.000000 0.661672
v -0.226609 -0.288264 1.139240
v -0.258172 -1.000000 0.623281
v -0.444509 -0.288264 1.073141
v -0.374807 -1.000000 0.560938
v -0.645328 -0.288264 0.965801
v -0.477039 -1.000000 0.477039
v -0.821346 -0.288264 0.821346
v -0.560938 -1.000000 0.374807
v -0.965801 -0.288264 0.645328
v -0.623281 -1.000000 0.258172
v -1.073141 -0.288264 0.444510
v -0.661672 -1.000000 0.131615
v -1.139240 -0.288264 0.226609
v -0.674635 -1.000000 0.000000
v -1.161559 -0.288264 -0.000000
v -0.661672 -1.000000 -0.131615
v -1.139240 -0.288264 -0.226609
v -0.623281 -1.000000 -0.258172
v -1.073141 -0.288264 -0.444510
v -0.560938 -1.000000 -0.374807
v -0.965801 -0.288264 -0.645328
v -0.477039 -1.000000 -0.477039
v -0.821346 -0.288264 -0.821346
v -0.374807 -1.000000 -0.560938
v -0.645328 -0.288264 -0.965801
v -0.258172 -1.000000 -0.623281
v -0.444509 -0.288264 -1.073141
v -0.131615 -1.000000 -0.661672
v -0.226609 -0.288264 -1.139240
v -0.000000 -1.000000 -0.674635
v -0.000000 -0.288264 -1.161559
v 0.131615 -1.000000 -0.661672
v 0.226609 -0.288264 -1.139240
v 0.258172 -1.000000 -0.623281
v 0.444510 -0.288264 -1.073141
v 0.374807 -1.000000 -0.560938
v 0.645328 -0.288264 -0.965801
v 0.477039 -1.000000 -0.477039
v 0.821346 -0.288264 -0.821346
v 0.560938 -1.000000 -0.374807
v 0.965801 -0.288264 -0.645328
v 0.623281 -1.000000 -0.258172
v 1.073141 -0.288264 -0.444510
v 0.661672 -1.000000 -0.131615
v 1.139240 -0.288264 -0.226609
v 0.674635 -1.000000 0.000000
v 1.161559 -0.288264 -0.000000
v 0.661672 -1.000000 0.131615
v 1.139240 -0.288264 0.226609
v 0.623281 -1.000000 0.258172
v 1.073141 -0.288264 0.444510
v 0.560938 -1.000000 0.374807
v 0.965801 -0.288264 0.645328
v 0.477039 -1.000000 0.477039
v 0.821346 -0.288264 0.821346
v 0.374807 -1.000000 0.560938
v 0.645328 -0.288264 0.965801
v 0.258172 -1.000000 0.623281
v 0.444510 -0.288264 1.073141
v 0.131615 -1.000000 0.661672
v 0.226609 -0.288264 1.139240
v 0.000000 0.000000 1.441909
v -0.281303 0.000000 1.414203
v -0.551795 0.000000 1.332150
v -0.801082 0.000000 1.198904
v -1.019584 0.000000 1.019584
v -1.198904 0.000000 0.801082
v -1.332150 0.000000 0.551795
v -1.414203 0.000000 0.281303
v -1.441909 0.000000 -0.000000
v -1.414203 0.000000 -0.281303
v -1.332150 0.000000 -0.551795
v -1.198904 0.000000 -0.801082
v -1.019584 0.000000 -1.019584
v -0.801082 0.000000 -1.198904
v -0.551795 0.000000 -1.332150
v -0.281303 0.000000 -1.414203
v 0.000000 0.000000 -1.441909
v 0.281303 0.000000 -1.414203
v 0.551795 0.000000 -1.332150
v 0.801082 0.000000 -1.198904
v 1.019584 0.000000 -1.019584
v 1.198904 0.000000 -0.801082
v 1.332150 0.000000 -0.551795
v 1.414203 0.000000 -0.281303
v 1.441909 0.000000 -0.000000
v 1.414203 0.000000 0.281303
v 1.332150 0.000000 0.551795
v 1.198904 0.000000 0.801082
v 1.019584 0.000000 1.019584
v 0.801082 0.000000 1.198904
v 0.551795 0.000000 1.332150
v 0.281303 0.000000 1.414203
vt 0.048737 0.189424
vt 0.033188 0.222688
vt 0.022684 0.197327
vt 0.057199 0.209854
vt 0.048439 0.245512
vt 0.085120 0.243876
vt 0.067849 0.264922
vt 0.090672 0.280172
vt 0.103506 0.256161
vt 0.116033 0.290677
vt 0.145624 0.268938
vt 0.142955 0.296032
vt 0.170405 0.296032
vt 0.189424 0.264624
vt 0.197327 0.290677
vt 0.209854 0.256161
vt 0.222688 0.280172
vt 0.245512 0.264922
vt 0.228240 0.243876
vt 0.264922 0.245512
vt 0.243876 0.228240
vt 0.280172 0.222688
vt 0.256161 0.209854
vt 0.290677 0.197327
vt 0.264624 0.189424
vt 0.296032 0.170405
vt 0.268938 0.167737
vt 0.296032 0.142955
vt 0.268938 0.145624
vt 0.290677 0.116033
vt 0.264624 0.123936
vt 0.280172 0.090672
vt 0.256161 0.103506
vt 0.264922 0.067849
vt 0.243876 0.085120
vt 0.245512 0.048439
vt 0.228240 0.069484
vt 0.222688 0.033188
vt 0.189424 0.048737
vt 0.197327 0.022684
vt 0.170405 0.017328
vt 0.145624 0.044423
vt 0.142955 0.017328
vt 0.123936 0.048737
vt 0.116033 0.022684
vt 0.090672 0.033188
vt 0.103506 0.057199
vt 0.067849 0.048439
vt 0.085120 0.069484
vt 0.048439 0.067849
vt 0.069484 0.085120
vt 0.033188 0.090672
vt 0.048737 0.123936
vt 0.022684 0.116033
vt 0.017328 0.142955
vt 0.044423 0.145624
vt 0.017328 0.170405
vt 0.214459 0.439157
vt 0.187564 0.527819
vt 0.098901 0.500924
vt 0.033188 0.536048
vt 0.093986 0.489058
vt 0.048439 0.558872
vt 0.106037 0.511602
vt 0.067849 0.578282
vt 0.115118 0.520684
vt 0.090672 0.593532
vt 0.125797 0.527819
vt 0.137662 0.532734
vt 0.142955 0.609392
vt 0.150259 0.535240
vt 0.163102 0.535240
vt 0.197327 0.604037
vt 0.175698 0.532734
vt 0.222688 0.593532
vt 0.245512 0.578282
vt 0.198242 0.520684
vt 0.264922 0.558872
vt 0.207324 0.511602
vt 0.280172 0.536048
vt 0.214459 0.500924
vt 0.290677 0.510688
vt 0.219374 0.489058
vt 0.296032 0.483765
vt 0.221879 0.476462
vt 0.296032 0.456315
vt 0.221879 0.463619
vt 0.290677 0.429393
vt 0.219374 0.451022
vt 0.280172 0.404033
vt 0.264922 0.381209
vt 0.207324 0.428478
vt 0.245512 0.361799
vt 0.198242 0.419397
vt 0.222688 0.346549
vt 0.187564 0.412261
vt 0.197327 0.336044
vt 0.175698 0.407347
vt 0.170405 0.330689
vt 0.163102 0.404841
vt 0.142955 0.330689
vt 0.150259 0.404841
vt 0.116033 0.336044
vt 0.137662 0.407347
vt 0.090672 0.346549
vt 0.125797 0.412261
vt 0.067849 0.361799
vt 0.115118 0.419397
vt 0.048439 0.381209
vt 0.106037 0.428478
vt 0.033188 0.404033
vt 0.098901 0.439157
vt 0.022684 0.429393
vt 0.093986 0.451022
vt 0.017328 0.456315
vt 0.091481 0.463619
vt 0.017328 0.483765
vt 0.091481 0.476462
vt 0.069484 0.228240
vt 0.123936 0.264624
vt 0.167737 0.268938
vt 0.209854 0.057199
vt 0.167737 0.044423
vt 0.057199 0.103506
vt 0.044423 0.167737
vt 0.022684 0.510688
vt 0.116033 0.604037
vt 0.170405 0.609392
vn 0.0704 0.6955 -0.7151
vn 0.2086 0.6955 -0.6876
vn 0.3387 0.6955 -0.6337
vn 0.4558 0.6955 -0.5555
vn 0.5555 0.6955 -0.4558
vn 0.6337 0.6955 -0.3387
vn 0.6876 0.6955 -0.2086
vn 0.7151 0.6955 -0.0704
vn 0.7151 0.6955 0.0704
vn 0.6876 0.6955 0.2086
vn 0.6337 0.6955 0.3387
vn 0.5555 0.6955 0.4558
vn 0.4558 0.6955 0.5555
vn 0.3387 0.6955 0.6337
vn 0.2086 0.6955 0.6876
vn 0.0704 0.6955 0.7151
vn -0.0704 0.6955 0.7151
vn -0.2086 0.6955 0.6876
vn -0.3387 0.6955 0.6337
vn -0.4558 0.6955 0.5555
vn -0.5555 0.6955 0.4558
vn -0.6337 0.6955 0.3387
vn -0.6876 0.6955 0.2086
vn -0.7151 0.6955 0.0704
vn -0.7151 0.6955 -0.0704
vn -0.6876 0.6955 -0.2086
vn -0.6337 0.6955 -0.3387
vn -0.5555 0.6955 -0.4558
vn -0.4558 0.6955 -0.5555
vn -0.3387 0.6955 -0.6337
vn 0.0000 1.0000 -0.0000
vn -0.2086 0.6955 -0.6876
vn -0.0704 0.6955 -0.7151
vn 0.0000 -1.0000 0.0000
vn 0.0779 -0.6069 0.7910
vn 0.2307 -0.6069 0.7606
vn 0.3747 -0.6069 0.7009
vn 0.5042 -0.6069 0.6144
vn 0.6144 -0.6069 0.5042
vn 0.7009 -0.6069 0.3747
vn 0.7606 -0.6069 0.2307
vn 0.7910 -0.6069 0.0779
vn 0.7910 -0.6069 -0.0779
vn 0.7606 -0.6069 -0.2307
vn 0.7009 -0.6069 -0.3747
vn 0.6144 -0.6069 -0.5042
vn 0.5042 -0.6069 -0.6144
vn 0.3747 -0.6069 -0.7009
vn 0.2307 -0.6069 -0.7606
vn 0.0779 -0.6069 -0.7910
vn -0.0779 -0.6069 -0.7910
vn -0.2307 -0.6069 -0.7606
vn -0.3747 -0.6069 -0.7009
vn -0.5042 -0.6069 -0.6144
vn -0.6144 -0.6069 -0.5042
vn -0.7009 -0.6069 -0.3747
vn -0.7606 -0.6069 -0.2307
vn -0.7910 -0.6069 -0.0779
vn -0.7910 -0.6069 0.0779
vn -0.7606 -0.6069 0.2307
vn -0.7009 -0.6069 0.3747
vn -0.6144 -0.6069 0.5042
vn -0.5042 -0.6069 0.6144
vn -0.3747 -0.6069 0.7009
vn -0.2307 -0.6069 0.7606
vn -0.0779 -0.6069 0.7910
vn 0.4559 0.6955 0.5555
usemtl マテリアル.002
s off
f 2/1/1 66/2/1 65/3/1
f 4/4/2 67/5/2 66/2/2
f 67/5/3 8/6/3 68/7/3
f 8/6/4 69/8/4 68/7/4
f 10/9/5 70/10/5 69/8/5
f 70/10/6 14/11/6 71/12/6
f 14/11/7 72/13/7 71/12/7
f 72/13/8 18/14/8 73/15/8
f 73/15/9 20/16/9 74/17/9
f 20/16/10 75/18/10 74/17/10
f 22/19/11 76/20/11 75/18/11
f 24/21/12 77/22/12 76/20/12
f 26/23/13 78/24/13 77/22/13
f 28/25/14 79/26/14 78/24/14
f 30/27/15 80/28/15 79/26/15
f 32/29/16 81/30/16 80/28/16
f 34/31/17 82/32/17 81/30/17
f 36/33/18 83/34/18 82/32/18
f 38/35/19 84/36/19 83/34/19
f 40/37/20 85/38/20 84/36/20
f 85/38/21 44/39/21 86/40/21
f 44/39/22 87/41/22 86/40/22
f 87/41/23 48/42/23 88/43/23
f 88/43/24 50/44/24 89/45/24
f 50/44/25 90/46/25 89/45/25
f 52/47/26 91/48/26 90/46/26
f 54/49/27 92/50/27 91/48/27
f 56/51/28 93/52/28 92/50/28
f 93/52/29 60/53/29 94/54/29
f 60/53/30 95/55/30 94/54/30
f 54/49/31 38/35/31 22/19/31
f 62/56/32 96/57/32 95/55/32
f 96/57/33 2/1/33 65/3/33
f 31/58/34 47/59/34 63/60/34
f 96/61/35 1/62/35 63/60/35
f 95/63/36 63/60/36 61/64/36
f 94/65/37 61/64/37 59/66/37
f 93/67/38 59/66/38 57/68/38
f 55/69/39 93/67/39 57/68/39
f 91/70/40 55/69/40 53/71/40
f 51/72/41 91/70/41 53/71/41
f 89/73/42 51/72/42 49/74/42
f 88/75/43 49/74/43 47/59/43
f 87/76/44 47/59/44 45/77/44
f 86/78/45 45/77/45 43/79/45
f 85/80/46 43/79/46 41/81/46
f 84/82/47 41/81/47 39/83/47
f 83/84/48 39/83/48 37/85/48
f 82/86/49 37/85/49 35/87/49
f 81/88/50 35/87/50 33/89/50
f 80/90/51 33/89/51 31/58/51
f 79/91/52 31/58/52 29/92/52
f 78/93/53 29/92/53 27/94/53
f 77/95/54 27/94/54 25/96/54
f 76/97/55 25/96/55 23/98/55
f 75/99/56 23/98/56 21/100/56
f 74/101/57 21/100/57 19/102/57
f 73/103/58 19/102/58 17/104/58
f 72/105/59 17/104/59 15/106/59
f 71/107/60 15/106/60 13/108/60
f 70/109/61 13/108/61 11/110/61
f 69/111/62 11/110/62 9/112/62
f 68/113/63 9/112/63 7/114/63
f 67/115/64 7/114/64 5/116/64
f 66/117/65 5/116/65 3/118/65
f 1/62/66 66/117/66 3/118/66
f 2/1/1 4/4/1 66/2/1
f 4/4/2 6/119/2 67/5/2
f 67/5/3 6/119/3 8/6/3
f 8/6/4 10/9/4 69/8/4
f 10/9/5 12/120/5 70/10/5
f 70/10/6 12/120/6 14/11/6
f 14/11/7 16/121/7 72/13/7
f 72/13/8 16/121/8 18/14/8
f 73/15/9 18/14/9 20/16/9
f 20/16/10 22/19/10 75/18/10
f 22/19/11 24/21/11 76/20/11
f 24/21/12 26/23/12 77/22/12
f 26/23/67 28/25/67 78/24/67
f 28/25/14 30/27/14 79/26/14
f 30/27/15 32/29/15 80/28/15
f 32/29/16 34/31/16 81/30/16
f 34/31/17 36/33/17 82/32/17
f 36/33/18 38/35/18 83/34/18
f 38/35/19 40/37/19 84/36/19
f 40/37/20 42/122/20 85/38/20
f 85/38/21 42/122/21 44/39/21
f 44/39/22 46/123/22 87/41/22
f 87/41/23 46/123/23 48/42/23
f 88/43/24 48/42/24 50/44/24
f 50/44/25 52/47/25 90/46/25
f 52/47/26 54/49/26 91/48/26
f 54/49/27 56/51/27 92/50/27
f 56/51/28 58/124/28 93/52/28
f 93/52/29 58/124/29 60/53/29
f 60/53/30 62/56/30 95/55/30
f 6/119/31 4/4/31 2/1/31
f 2/1/31 64/125/31 6/119/31
f 64/125/31 62/56/31 6/119/31
f 62/56/31 60/53/31 58/124/31
f 58/124/31 56/51/31 54/49/31
f 54/49/31 52/47/31 46/123/31
f 52/47/31 50/44/31 46/123/31
f 50/44/31 48/42/31 46/123/31
f 46/123/31 44/39/31 42/122/31
f 42/122/31 40/37/31 38/35/31
f 38/35/31 36/33/31 30/27/31
f 36/33/31 34/31/31 30/27/31
f 34/31/31 32/29/31 30/27/31
f 30/27/31 28/25/31 26/23/31
f 26/23/31 24/21/31 22/19/31
f 22/19/31 20/16/31 18/14/31
f 18/14/31 16/121/31 14/11/31
f 14/11/31 12/120/31 10/9/31
f 10/9/31 8/6/31 6/119/31
f 62/56/31 58/124/31 6/119/31
f 58/124/31 54/49/31 6/119/31
f 46/123/31 42/122/31 38/35/31
f 30/27/31 26/23/31 38/35/31
f 26/23/31 22/19/31 38/35/31
f 22/19/31 18/14/31 6/119/31
f 18/14/31 14/11/31 6/119/31
f 14/11/31 10/9/31 6/119/31
f 54/49/31 46/123/31 38/35/31
f 6/119/31 54/49/31 22/19/31
f 62/56/32 64/125/32 96/57/32
f 96/57/33 64/125/33 2/1/33
f 63/60/34 1/62/34 3/118/34
f 3/118/34 5/116/34 7/114/34
f 7/114/34 9/112/34 15/106/34
f 9/112/34 11/110/34 15/106/34
f 11/110/34 13/108/34 15/106/34
f 15/106/34 17/104/34 19/102/34
f 19/102/34 21/100/34 23/98/34
f 23/98/34 25/96/34 31/58/34
f 25/96/34 27/94/34 31/58/34
f 27/94/34 29/92/34 31/58/34
f 31/58/34 33/89/34 35/87/34
f 35/87/34 37/85/34 39/83/34
f 39/83/34 41/81/34 47/59/34
f 41/81/34 43/79/34 47/59/34
f 43/79/34 45/77/34 47/59/34
f 47/59/34 49/74/34 51/72/34
f 51/72/34 53/71/34 55/69/34
f 55/69/34 57/68/34 63/60/34
f 57/68/34 59/66/34 63/60/34
f 59/66/34 61/64/34 63/60/34
f 63/60/34 3/118/34 7/114/34
f 15/106/34 19/102/34 23/98/34
f 31/58/34 35/87/34 47/59/34
f 35/87/34 39/83/34 47/59/34
f 47/59/34 51/72/34 63/60/34
f 51/72/34 55/69/34 63/60/34
f 63/60/34 7/114/34 15/106/34
f 15/106/34 23/98/34 31/58/34
f 63/60/34 15/106/34 31/58/34
f 96/61/35 65/126/35 1/62/35
f 95/63/36 96/61/36 63/60/36
f 94/65/37 95/63/37 61/64/37
f 93/67/38 94/65/38 59/66/38
f 55/69/39 92/127/39 93/67/39
f 91/70/40 92/127/40 55/69/40
f 51/72/41 90/128/41 91/70/41
f 89/73/42 90/128/42 51/72/42
f 88/75/43 89/73/43 49/74/43
f 87/76/44 88/75/44 47/59/44
f 86/78/45 87/76/45 45/77/45
f 85/80/46 86/78/46 43/79/46
f 84/82/47 85/80/47 41/81/47
f 83/84/48 84/82/48 39/83/48
f 82/86/49 83/84/49 37/85/49
f 81/88/50 82/86/50 35/87/50
f 80/90/51 81/88/51 33/89/51
f 79/91/52 80/90/52 31/58/52
f 78/93/53 79/91/53 29/92/53
f 77/95/54 78/93/54 27/94/54
f 76/97/55 77/95/55 25/96/55
f 75/99/56 76/97/56 23/98/56
f 74/101/57 75/99/57 21/100/57
f 73/103/58 74/101/58 19/102/58
f 72/105/59 73/103/59 17/104/59
f 71/107/60 72/105/60 15/106/60
f 70/109/61 71/107/61 13/108/61
f 69/111/62 70/109/62 11/110/62
f 68/113/63 69/111/63 9/112/63
f 67/115/64 68/113/64 7/114/64
f 66/117/65 67/115/65 5/116/65
f 1/62/66 65/126/66 66/117/66
o 立方体.001_立方体.002
v -0.677044 -0.410927 -0.815449
v -1.222524 0.421995 -0.908689
v -0.845533 -0.410927 0.170255
v -1.391013 0.421995 0.077014
v -0.693464 -0.421995 -0.818255
v -1.238944 0.410927 -0.911496
v -0.861954 -0.421995 0.167448
v -1.407434 0.410927 0.074207
vt 0.753792 0.669311
vt 0.559569 0.475088
vt 0.753792 0.475088
vt 0.753792 0.440431
vt 0.559569 0.246208
vt 0.753792 0.246208
vt 0.753792 0.211551
vt 0.559569 0.017328
vt 0.753792 0.017329
vt 0.524912 0.211551
vt 0.330689 0.017328
vt 0.524912 0.017329
vt 0.524912 0.246208
vt 0.330689 0.440431
vt 0.330689 0.246208
vt 0.524912 0.475088
vt 0.330689 0.669311
vt 0.330689 0.475088
vt 0.559569 0.669311
vt 0.559569 0.440431
vt 0.559569 0.211551
vt 0.330689 0.211551
vt 0.524912 0.440431
vt 0.524912 0.669311
vn 0.8210 0.5534 0.1403
vn -0.1685 0.0000 0.9857
vn -0.8210 -0.5534 -0.1403
vn 0.1685 0.0000 -0.9857
vn 0.5455 -0.8329 0.0932
vn -0.5455 0.8329 -0.0932
usemtl マテリアル
s off
f 98/129/68 99/130/68 97/131/68
f 100/132/69 103/133/69 99/134/69
f 104/135/70 101/136/70 103/137/70
f 102/138/71 97/139/71 101/140/71
f 103/141/72 97/142/72 99/143/72
f 100/144/73 102/145/73 104/146/73
f 98/129/68 100/147/68 99/130/68
f 100/132/69 104/148/69 103/133/69
f 104/135/70 102/149/70 101/136/70
f 102/138/71 98/150/71 97/139/71
f 103/141/72 101/151/72 97/142/72
f 100/144/73 98/152/73 102/145/73
o 立方体_立方体.003
v -0.862636 -0.410927 -0.443445
v -1.415987 0.421995 -0.436684
v -0.850419 -0.410927 0.556481
v -1.403770 0.421995 0.563241
v -0.879294 -0.421995 -0.443241
v -1.432644 0.410927 -0.436481
v -0.867077 -0.421995 0.556684
v -1.420427 0.410927 0.563445
vt 0.211551 0.838272
vt 0.017329 0.644049
vt 0.211551 0.644049
vt 0.524912 0.898191
vt 0.330689 0.703968
vt 0.524912 0.703968
vt 0.753792 0.898191
vt 0.559569 0.703968
vt 0.753792 0.703968
vt 0.982671 0.211551
vt 0.788449 0.017328
vt 0.982671 0.017329
vt 0.982671 0.246208
vt 0.788449 0.440431
vt 0.788449 0.246208
vt 0.982671 0.475088
vt 0.788449 0.669311
vt 0.788449 0.475088
vt 0.017328 0.838272
vt 0.330689 0.898191
vt 0.559569 0.898191
vt 0.788449 0.211551
vt 0.982671 0.440431
vt 0.982671 0.669311
vn 0.8329 0.5534 -0.0102
vn 0.0122 -0.0000 0.9999
vn -0.8329 -0.5534 0.0102
vn -0.0122 0.0000 -0.9999
vn 0.5534 -0.8329 -0.0068
vn -0.5533 0.8329 0.0068
usemtl マテリアル.001
s off
f 106/153/74 107/154/74 105/155/74
f 108/156/75 111/157/75 107/158/75
f 112/159/76 109/160/76 111/161/76
f 110/162/77 105/163/77 109/164/77
f 111/165/78 105/166/78 107/167/78
f 108/168/79 110/169/79 112/170/79
f 106/153/74 108/171/74 107/154/74
f 108/156/75 112/172/75 111/157/75
f 112/159/76 110/173/76 109/160/76
f 110/162/77 106/174/77 105/163/77
f 111/165/78 109/175/78 105/166/78
f 108/168/79 106/176/79 110/169/79
